PathFileType	4	(X/Y/Z)	/Users/itak/Documents/Research/Walk-IL/dataset/trc/00094_00006.trc
DataRate	CameraRate	NumFrames	NumMarkers	Units	OrigDataRate	OrigDataStartFrame	OrigNumFrames
100.000000	100.000000	4	53	mm	100.000000	393	525
Frame#	Time	RPSI			LPSI			L3			STRN			T10			C7			CLAV			RBAK			LBAK			LSHO			LUPA			LAEL			LAOL			LWTS			LWPS			LFRA			LIFD			LHPS			LHTS			RSHO			RUPA			RAEL			RAOL			RWTS			RWPS			RFRA			RIFD			RHTS			RHPS			RBHD			LFHD			RFHD			LBHD			LHIP			RHIP			RASI			LASI			LKNE			LTHI			LANK			LTIP			LTOE			LMT1			LMT5			LHEE			RKNE			RTHI			RANK			RTIP			RTOE			RMT1			RMT5			RHEE			
		X1	Y1	Z1	X2	Y2	Z2	X3	Y3	Z3	X4	Y4	Z4	X5	Y5	Z5	X6	Y6	Z6	X7	Y7	Z7	X8	Y8	Z8	X9	Y9	Z9	X10	Y10	Z10	X11	Y11	Z11	X12	Y12	Z12	X13	Y13	Z13	X14	Y14	Z14	X15	Y15	Z15	X16	Y16	Z16	X17	Y17	Z17	X18	Y18	Z18	X19	Y19	Z19	X20	Y20	Z20	X21	Y21	Z21	X22	Y22	Z22	X23	Y23	Z23	X24	Y24	Z24	X25	Y25	Z25	X26	Y26	Z26	X27	Y27	Z27	X28	Y28	Z28	X29	Y29	Z29	X30	Y30	Z30	X31	Y31	Z31	X32	Y32	Z32	X33	Y33	Z33	X34	Y34	Z34	X35	Y35	Z35	X36	Y36	Z36	X37	Y37	Z37	X38	Y38	Z38	X39	Y39	Z39	X40	Y40	Z40	X41	Y41	Z41	X42	Y42	Z42	X43	Y43	Z43	X44	Y44	Z44	X45	Y45	Z45	X46	Y46	Z46	X47	Y47	Z47	X48	Y48	Z48	X49	Y49	Z49	X50	Y50	Z50	X51	Y51	Z51	X52	Y52	Z52	X53	Y53	Z53	

394	3.93	-30.95437812805176	1017.178588867188	804.6196899414062	139.5920257568359	998.1085815429688	762.560791015625	57.72983169555664	1063.214721679688	783.2700805664062	119.9516143798828	1269.386840820312	1020.661865234375	55.53467559814453	1196.982177734375	760.194091796875	75.96293640136719	1465.42333984375	810.6456298828125	116.481559753418	1383.271728515625	987.8026733398438	-15.6260986328125	1326.8759765625	770.0021362304688	168.4187316894531	1426.216552734375	766.4895629882812	264.1114196777344	1432.571411132812	849.3495483398438	333.2060546875	1304.581665039062	812.3461303710938	358.4172973632812	1090.803588867188	822.11669921875	257.1542053222656	1074.892944335938	789.3404541015625	333.7332153320312	849.239501953125	923.5928344726562	370.1182861328125	840.2813720703125	847.8885498046875	373.763671875	982.0993041992188	836.4545288085938	321.6589050292969	664.9733276367188	937.386962890625	378.5460205078125	759.4613647460938	878.7869873046875	346.990478515625	767.3668212890625	941.9224243164062	-80.05119323730469	1429.643188476562	916.85302734375	-144.5974731445312	1358.561889648438	925.967529296875	-172.6415710449219	1089.368530273438	932.157958984375	-73.95826721191406	1070.549560546875	921.8174438476562	-71.49933624267578	871.7186889648438	1097.181762695312	-136.645263671875	838.2670288085938	1049.849853515625	-169.7598266601562	1010.280090332031	958.7775268554688	-29.22984886169434	693.0034790039062	1131.611083984375	-52.12041854858398	779.4227294921875	1140.623291015625	-119.5624160766602	760.16650390625	1103.743530273438	21.53491020202637	1620.207397460938	840.7603759765625	138.1870422363281	1697.515502929688	1013.505676269531	14.64004993438721	1676.434326171875	1002.865966796875	156.0932769775391	1649.485107421875	842.4073486328125	247.3215789794922	939.6553955078125	853.0486450195312	-97.87919616699219	952.0824584960938	884.9039306640625	-52.18605422973633	965.6849975585938	1004.038269042969	213.8257293701172	956.5828247070312	972.0542602539062	225.9615173339844	517.012451171875	1065.84228515625	256.3746337890625	636.7975463867188	985.5772094726562	257.6363525390625	45.47247314453125	1082.810668945312	254.2371063232422	271.5250854492188	1073.615112304688	254.8100891113281	77.58848571777344	1284.043334960938	201.2773895263672	66.35029602050781	1239.163330078125	296.5870361328125	50.24029159545898	1183.042602539062	179.2855834960938	40.36441040039062	1034.81201171875	-39.52713012695312	498.4454345703125	918.2569580078125	-77.36476898193359	765.64306640625	956.7942504882812	-84.05802154541016	75.08512115478516	669.7381591796875	-52.84880065917969	378.9410705566406	864.8091430664062	29.50909805297852	39.23455810546875	848.1460571289062	42.65895080566406	47.58960342407227	780.8168334960938	-55.41840744018555	50.89999008178711	788.5548095703125	-48.60986328125	92.80203247070312	607.9166259765625	
395	3.94	-27.23199844360352	1018.36181640625	810.5941162109375	143.3519439697266	999.3098754882812	769.0347290039062	61.54336547851562	1064.029663085938	789.5096435546875	123.1899337768555	1270.61767578125	1026.738403320312	59.7545166015625	1197.8271484375	765.9115600585938	80.099609375	1466.337646484375	816.1708984375	119.796257019043	1384.470092773438	993.6968383789062	-11.3036584854126	1327.6572265625	775.3810424804688	172.7950439453125	1427.122924804688	772.6072387695312	268.0444946289062	1433.860229492188	856.0016479492188	337.6799621582031	1305.919921875	819.890869140625	363.1279907226562	1092.1806640625	830.822998046875	262.1844482421875	1075.961181640625	797.3031616210938	338.0457458496094	851.1284790039062	933.4181518554688	374.971435546875	841.793212890625	858.0186157226562	378.48291015625	983.5623168945312	845.84375	326.0522155761719	666.9102172851562	948.1279296875	383.2555847167969	761.1345825195312	889.4300537109375	351.2412719726562	769.3735961914062	952.2631225585938	-76.39633941650391	1430.646118164062	921.8096923828125	-140.946044921875	1359.537475585938	930.6051635742188	-168.6186065673828	1090.575561523438	935.3186645507812	-69.05722808837891	1071.618041992188	926.4656372070312	-70.96638488769531	870.1119995117188	1098.61083984375	-136.2209930419922	838.1778564453125	1050.162109375	-166.2322540283203	1011.470886230469	961.2626342773438	-31.14117431640625	690.3475952148438	1130.787475585938	-52.92155838012695	777.0719604492188	1140.89453125	-120.4125595092773	759.060791015625	1103.185424804688	25.21577262878418	1621.106567382812	845.8895874023438	141.0942687988281	1698.64306640625	1019.063232421875	17.61122894287109	1677.470825195312	1007.914916992188	159.7581634521484	1650.45458984375	848.090087890625	250.7790069580078	940.6956176757812	859.7340698242188	-94.73814392089844	953.16845703125	890.5106201171875	-48.80691909790039	966.8593139648438	1009.978515625	217.0578308105469	957.4912719726562	978.5989379882812	227.5813903808594	517.181396484375	1071.294555664062	258.4663391113281	637.4217529296875	991.7490844726562	257.9309997558594	45.29645156860352	1083.533203125	255.3178100585938	271.2169189453125	1077.296020507812	255.3318328857422	73.31240844726562	1285.738037109375	201.7356719970703	63.39340972900391	1240.562133789062	296.9647521972656	48.40524673461914	1183.8408203125	179.4490509033203	41.21278381347656	1035.571655273438	-36.53097534179688	498.8857116699219	927.3214111328125	-74.07337188720703	766.544677734375	963.450927734375	-83.10489654541016	79.49340057373047	671.5899047851562	-50.78334426879883	380.0120849609375	872.3131103515625	29.52699279785156	39.25032043457031	848.169189453125	42.78417587280273	48.20696258544922	781.6748657226562	-55.09317016601562	51.95049285888672	789.7905883789062	-47.11915969848633	98.78758239746094	610.57958984375	
396	3.95	-23.46949768066406	1019.55078125	816.4413452148438	147.1593475341797	1000.477661132812	775.4547119140625	65.38771820068359	1064.90478515625	795.6514892578125	126.3845291137695	1271.884765625	1032.768310546875	63.9804573059082	1198.691528320312	771.5684204101562	84.20903778076172	1467.259887695312	821.656494140625	123.0720825195312	1385.698852539062	999.544921875	-6.995654582977295	1328.460327148438	780.7217407226562	177.1415863037109	1428.056274414062	778.70263671875	271.92724609375	1435.209838867188	862.629150390625	342.1501159667969	1307.348510742188	827.4037475585938	367.822021484375	1093.657104492188	839.4855346679688	267.2142639160156	1077.113891601562	805.2294921875	342.3094787597656	853.14013671875	943.2686767578125	379.8079833984375	843.4131469726562	868.1968994140625	383.1888427734375	985.1266479492188	855.2279052734375	330.2989196777344	668.9635620117188	958.8693237304688	387.8975219726562	762.9180297851562	900.1199951171875	355.3962097167969	771.4844970703125	962.6300659179688	-72.76090240478516	1431.715942382812	926.6845092773438	-137.3371276855469	1360.6142578125	935.163330078125	-164.6405792236328	1091.8916015625	938.3377075195312	-64.32392120361328	1072.815551757812	930.9833374023438	-70.58477020263672	868.6384887695312	1099.916625976562	-135.8729248046875	838.248046875	1050.349975585938	-162.7956848144531	1012.805114746094	963.5498046875	-33.25077438354492	687.8211059570312	1129.700073242188	-54.00342178344727	774.8174438476562	1140.964721679688	-121.4077072143555	758.1373901367188	1102.419555664062	28.84119415283203	1622.036743164062	850.9894409179688	143.9861145019531	1699.782104492188	1024.570678710938	20.5628662109375	1678.528198242188	1012.934387207031	163.3732757568359	1651.44580078125	853.72216796875	254.2837829589844	941.7232055664062	866.4031372070312	-91.49049377441406	954.25830078125	896.0541381835938	-45.52838897705078	967.9863891601562	1015.712036132812	220.30078125	958.39990234375	985.0968017578125	229.3071441650391	517.2688598632812	1076.530395507812	260.6264038085938	637.9920654296875	997.7638549804688	258.2573852539062	45.14740753173828	1084.255981445312	256.4269104003906	270.8878784179688	1080.679565429688	255.6584625244141	69.29629516601562	1287.300537109375	202.0297393798828	60.74520874023438	1241.792846679688	297.2764892578125	46.76670837402344	1184.650146484375	179.662353515625	41.96929168701172	1036.270874023438	-33.70942687988281	499.3150939941406	936.9495849609375	-70.82424163818359	767.49755859375	970.180908203125	-81.95005798339844	84.18781280517578	673.7205200195312	-48.78466796875	381.1529541015625	880.300048828125	29.51972770690918	39.25515365600586	848.1533203125	42.98409652709961	48.87994003295898	782.6396484375	-54.67700576782227	53.0997200012207	791.1498413085938	-45.32245635986328	105.1643676757812	613.6821899414062	
397	3.96	-19.6521110534668	1020.675170898438	822.1405029296875	151.0304718017578	1001.574401855469	781.8077392578125	69.28417205810547	1065.800903320312	801.6640014648438	129.5140380859375	1273.140380859375	1038.74462890625	68.23185729980469	1199.54541015625	777.16162109375	88.28890228271484	1468.156616210938	827.101318359375	126.2906951904297	1386.909912109375	1005.343994140625	-2.698080539703369	1329.253540039062	786.0052490234375	181.4635925292969	1428.977294921875	784.7775268554688	275.7569580078125	1436.5634765625	869.2373046875	346.597900390625	1308.807495117188	834.8826904296875	372.5071716308594	1095.170776367188	848.0921020507812	272.2540588378906	1078.287963867188	813.1069946289062	346.51708984375	855.223388671875	953.1397705078125	384.6210021972656	845.0780639648438	878.4190063476562	387.8929748535156	986.7296752929688	864.5955200195312	334.4059143066406	671.090087890625	969.6439208984375	392.468505859375	764.757568359375	910.8626708984375	359.4671936035156	773.6558227539062	973.0350341796875	-69.16023254394531	1432.803955078125	931.463623046875	-133.7784576416016	1361.739013671875	939.6151733398438	-160.7499847412109	1093.253173828125	941.2101440429688	-59.89760208129883	1074.085083007812	935.2924194335938	-70.34774017333984	867.283203125	1101.1298828125	-135.5764007568359	838.431396484375	1050.4375	-159.4737854003906	1014.2197265625	965.649169921875	-35.49248886108398	685.436767578125	1128.422729492188	-55.34307098388672	772.652099609375	1140.87451171875	-122.5075836181641	757.3619384765625	1101.488647460938	32.40620803833008	1622.961303710938	856.0552978515625	146.8532867431641	1700.900634765625	1030.020141601562	23.48721504211426	1679.573120117188	1017.918884277344	166.9291076660156	1652.424926757812	859.2975463867188	257.8435668945312	942.7080688476562	873.0554809570312	-88.12549591064453	955.2936401367188	901.5016479492188	-42.34838104248047	969.0404663085938	1021.24560546875	223.53662109375	959.28271484375	991.5474243164062	231.1251068115234	517.2647705078125	1081.54296875	262.857666015625	638.4765625	1003.574096679688	258.5777587890625	45.03031921386719	1084.98193359375	257.533935546875	270.5409851074219	1083.815063476562	255.7769012451172	65.53268432617188	1288.76513671875	202.1487884521484	58.3863639831543	1242.884521484375	297.5039672851562	45.34585571289062	1185.482299804688	179.9122772216797	42.63603210449219	1036.912475585938	-31.10311317443848	499.7181091308594	947.1033325195312	-67.64720153808594	768.4656982421875	976.9669799804688	-80.60790252685547	89.14385223388672	676.1640625	-46.87472534179688	382.3545532226562	888.7672119140625	29.48475646972656	39.23099136352539	848.1080322265625	43.2635383605957	49.62455749511719	783.7277221679688	-54.16764450073242	54.30829238891602	792.6270751953125	-43.24696350097656	111.8933181762695	617.2691040039062	
